<svg width="299" height="75" viewBox="0 0 299 75" fill="none" xmlns="http://www.w3.org/2000/svg">
<rect width="299" height="75" fill="black"/>
<path d="M108.518 13.9692C116.827 20.424 126.382 20.0174 129.102 20.0174C128.517 56.662 123.968 51.7828 108.518 62.0494C93.0669 51.7828 88.5689 56.662 87.959 20.0174C90.6781 20.0174 100.208 20.3986 108.518 13.9692Z" fill="white"/>
<path d="M108.517 13.9695L109.712 12.4193C109 11.8602 108.009 11.8602 107.298 12.4193L108.517 13.9695ZM129.101 20.0176L131.058 20.043C131.058 19.5093 130.855 19.0011 130.499 18.6453C130.118 18.2641 129.635 18.0608 129.101 18.0608V20.0176ZM108.517 62.0496L107.425 63.676C108.085 64.108 108.949 64.108 109.61 63.676L108.517 62.0496ZM87.9589 20.0176V18.0608C87.4252 18.0608 86.917 18.2641 86.5612 18.6453C86.18 19.0265 85.9767 19.5348 86.0021 20.043L87.9589 20.0176ZM107.323 15.5196C116.243 22.4318 126.433 21.9743 129.101 21.9743V18.0354C126.332 18.0354 117.437 18.3912 109.712 12.3939L107.323 15.5196ZM127.145 19.9668C126.992 29.0898 126.611 35.5191 125.874 40.2966C125.137 45.0233 124.095 47.8441 122.748 49.8263C121.376 51.8847 119.673 53.1045 117.158 54.6292C114.616 56.1539 111.389 57.8057 107.425 60.4232L109.61 63.7014C113.371 61.1856 116.522 59.5846 119.191 58.009C121.884 56.4081 124.248 54.6292 126.027 52.0371C127.831 49.3688 129 45.9128 129.762 40.9065C130.525 35.9511 130.931 29.2677 131.084 20.043L127.145 19.9668ZM109.61 60.4232C105.646 57.8057 102.444 56.1539 99.8773 54.6292C97.3614 53.1299 95.6588 51.8847 94.2865 49.8263C92.9397 47.8441 91.8978 45.0233 91.1862 40.2966C90.4493 35.5191 90.0681 29.0898 89.9156 19.9668L86.0021 20.043C86.1546 29.2423 86.5612 35.9511 87.3236 40.9065C88.0859 45.9128 89.2549 49.3688 91.0592 52.0371C92.838 54.6292 95.2014 56.3827 97.8697 58.009C100.538 59.61 103.664 61.211 107.425 63.7014L109.61 60.4232ZM87.9589 21.9743C90.6018 21.9743 100.818 22.4064 109.712 15.5196L107.298 12.4193C99.5977 18.3912 90.7034 18.0354 87.9589 18.0354V21.9743Z" fill="#3375BB"/>
<path d="M151.603 17.6352H146.18V32.34H142.53V17.6352H137.176V14.6803H151.568V17.6352H151.603ZM160.224 25.8741H157.339V32.34H153.689V14.6803H160.259C162.345 14.6803 163.944 15.1323 165.091 16.0709C166.238 17.0095 166.794 18.3305 166.794 19.9991C166.794 21.2158 166.516 22.224 165.995 23.0235C165.473 23.8231 164.674 24.4488 163.631 24.9355L167.455 32.1662V32.34H163.561L160.224 25.8741ZM157.339 22.9192H160.259C161.163 22.9192 161.893 22.6759 162.379 22.224C162.866 21.772 163.144 21.1115 163.144 20.2772C163.144 19.4429 162.901 18.7824 162.414 18.2957C161.962 17.809 161.232 17.5657 160.259 17.5657H157.339V22.9192ZM182.924 14.6803V26.326C182.924 28.2727 182.333 29.8023 181.117 30.9147C179.9 32.0272 178.266 32.6182 176.18 32.6182C174.129 32.6182 172.495 32.0619 171.279 30.9843C170.062 29.9066 169.436 28.377 169.436 26.4651V14.6803H173.086V26.326C173.086 27.4732 173.364 28.3423 173.921 28.8637C174.477 29.3852 175.242 29.6633 176.215 29.6633C178.266 29.6633 179.309 28.5856 179.344 26.4303V14.6803H182.924ZM195.091 27.7165C195.091 27.0213 194.848 26.4998 194.361 26.1522C193.875 25.7698 193.006 25.3874 191.754 24.9703C190.503 24.5531 189.495 24.1359 188.765 23.7535C186.748 22.6759 185.74 21.2158 185.74 19.3734C185.74 18.4348 186.018 17.5657 186.54 16.8357C187.096 16.0709 187.861 15.4799 188.869 15.0627C189.877 14.6456 191.024 14.437 192.276 14.437C193.527 14.437 194.674 14.6804 195.648 15.1323C196.621 15.5842 197.386 16.2447 197.942 17.079C198.498 17.9133 198.776 18.8519 198.776 19.9296H195.126C195.126 19.13 194.883 18.5043 194.361 18.0524C193.84 17.6005 193.145 17.3571 192.206 17.3571C191.302 17.3571 190.607 17.5309 190.12 17.9133C189.634 18.2957 189.39 18.7824 189.39 19.4081C189.39 19.9991 189.668 20.451 190.259 20.8682C190.85 21.2506 191.685 21.633 192.832 21.9459C194.918 22.5716 196.412 23.3364 197.351 24.275C198.29 25.2136 198.776 26.3608 198.776 27.7165C198.776 29.2461 198.185 30.4628 197.038 31.3319C195.891 32.201 194.327 32.6182 192.38 32.6182C191.024 32.6182 189.773 32.3748 188.66 31.8881C187.548 31.4014 186.679 30.7062 186.088 29.8371C185.497 28.968 185.219 27.9599 185.219 26.8127H188.869C188.869 28.7594 190.051 29.7328 192.38 29.7328C193.249 29.7328 193.909 29.559 194.396 29.2113C194.848 28.8289 195.091 28.3423 195.091 27.7165ZM214.524 17.6352H209.101V32.34H205.451V17.6352H200.097V14.6803H214.489V17.6352H214.524Z" fill="#3375BB"/>
<path d="M144.551 47.704L144.968 49.8593L145.49 47.8083L148.479 37.6227H149.522L152.477 47.8083L152.999 49.8593L153.451 47.704L155.954 37.6227H157.135L153.59 51.4236H152.477L149.349 40.6123L149.001 39.2565L148.653 40.6123L145.455 51.4236H144.343L140.832 37.6227H142.013L144.551 47.704ZM166.452 47.5302H160.195L158.769 51.3889H157.518L162.732 37.5879H163.845L169.059 51.3889H167.843L166.452 47.5302ZM160.542 46.5568H166.07L163.289 39.0479L160.542 46.5568ZM172.292 50.4155H179.106V51.3889H171.11V37.5879H172.292V50.4155ZM182.547 50.4155H189.361V51.3889H181.365V37.5879H182.547V50.4155ZM199.234 44.7839H192.768V50.4155H200.207V51.3889H191.586V37.5879H200.137V38.596H192.768V43.8105H199.234V44.7839ZM212.2 38.596H207.473V51.3889H206.291V38.596H201.563V37.5879H212.166V38.596H212.2Z" fill="#2E91DB"/>
</svg>
