<svg width="299" height="75" viewBox="0 0 299 75" fill="none" xmlns="http://www.w3.org/2000/svg">
<rect width="299" height="75" fill="black"/>
<path d="M239.054 38.2795C237.86 37.4653 236.557 36.9224 235.255 36.2167C234.44 35.7825 233.572 35.3482 232.866 34.7511C231.672 33.7739 231.889 31.8197 233.192 30.9512C234.983 29.7569 237.969 30.4083 238.295 32.8511C238.295 32.9054 238.349 32.9597 238.403 32.9597H241.117C241.172 32.9597 241.226 32.9054 241.226 32.8511C241.063 31.1683 240.412 29.7569 239.217 28.8341C238.077 27.9655 236.775 27.5312 235.363 27.5312C228.198 27.5312 227.546 35.131 231.4 37.5196C231.835 37.791 235.635 39.6909 236.992 40.5595C238.349 41.3737 238.729 42.8937 238.186 44.088C237.643 45.1736 236.286 45.9336 234.929 45.8251C233.409 45.7165 232.269 44.9022 231.835 43.6537C231.78 43.4365 231.726 43.0023 231.726 42.7851C231.726 42.7308 231.672 42.6766 231.618 42.6766H228.686C228.632 42.6766 228.578 42.7308 228.578 42.7851C228.578 44.9022 229.12 46.0965 230.532 47.1822C231.889 48.2136 233.355 48.6478 234.929 48.6478C238.946 48.6478 241.009 46.3679 241.443 44.0337C241.769 41.7537 241.117 39.6909 239.054 38.2795Z" fill="#BBBBBB"/>
<path d="M111.107 27.9653H109.804H108.392C108.338 27.9653 108.284 28.0196 108.284 28.0196L105.841 35.9994C105.787 36.108 105.678 36.108 105.624 35.9994L103.181 28.0196C103.181 27.9653 103.127 27.9653 103.073 27.9653H101.661H100.358H98.6213C98.567 27.9653 98.5127 28.0196 98.5127 28.0739V48.4305C98.5127 48.4848 98.567 48.5391 98.6213 48.5391H101.553C101.607 48.5391 101.661 48.4848 101.661 48.4305V32.9595C101.661 32.8509 101.824 32.7966 101.878 32.9052L104.321 40.9393L104.484 41.4821C104.484 41.5364 104.538 41.5364 104.593 41.5364H106.872C106.927 41.5364 106.981 41.4821 106.981 41.4821L107.144 40.9393L109.587 32.9052C109.641 32.7966 109.804 32.7966 109.804 32.9595V48.4305C109.804 48.4848 109.858 48.5391 109.912 48.5391H112.844C112.898 48.5391 112.952 48.4848 112.952 48.4305V28.0739C112.952 28.0196 112.898 27.9653 112.844 27.9653H111.107Z" fill="#BBBBBB"/>
<path d="M193.944 27.9653C193.89 27.9653 193.836 28.0196 193.836 28.0196L191.393 35.9994C191.339 36.108 191.23 36.108 191.176 35.9994L188.733 28.0196C188.733 27.9653 188.679 27.9653 188.624 27.9653H184.119C184.065 27.9653 184.01 28.0196 184.01 28.0739V48.4305C184.01 48.4848 184.065 48.5391 184.119 48.5391H187.05C187.104 48.5391 187.159 48.4848 187.159 48.4305V32.9595C187.159 32.8509 187.322 32.7966 187.376 32.9052L189.819 40.9393L189.982 41.4821C189.982 41.5364 190.036 41.5364 190.09 41.5364H192.37C192.424 41.5364 192.479 41.4821 192.479 41.4821L192.641 40.9393L195.084 32.9052C195.139 32.7966 195.301 32.7966 195.301 32.9595V48.4305C195.301 48.4848 195.356 48.5391 195.41 48.5391H198.341C198.396 48.5391 198.45 48.4848 198.45 48.4305V28.0739C198.45 28.0196 198.396 27.9653 198.341 27.9653H193.944Z" fill="#BBBBBB"/>
<path d="M155.945 27.9653H150.463H147.531H141.994C141.94 27.9653 141.886 28.0196 141.886 28.0739V30.6253C141.886 30.6795 141.94 30.7338 141.994 30.7338H147.368V48.4305C147.368 48.4848 147.423 48.5391 147.477 48.5391H150.408C150.463 48.5391 150.517 48.4848 150.517 48.4305V30.7338H155.891C155.945 30.7338 156 30.6795 156 30.6253V28.0739C156.054 28.0196 156 27.9653 155.945 27.9653Z" fill="#BBBBBB"/>
<path d="M173.317 48.5392H175.976C176.031 48.5392 176.085 48.4849 176.085 48.3763L170.548 27.9654C170.548 27.9111 170.494 27.9111 170.439 27.9111H169.408H167.617H166.585C166.531 27.9111 166.477 27.9654 166.477 27.9654L160.94 48.3763C160.94 48.4306 160.994 48.5392 161.048 48.5392H163.708C163.762 48.5392 163.817 48.4849 163.817 48.4849L165.445 42.5136C165.445 42.4593 165.5 42.4593 165.554 42.4593H171.471C171.525 42.4593 171.579 42.5136 171.579 42.5136L173.208 48.4849C173.208 48.4849 173.262 48.5392 173.317 48.5392ZM166.26 39.528L168.431 31.5482C168.485 31.4396 168.594 31.4396 168.648 31.5482L170.819 39.528C170.819 39.5823 170.765 39.6908 170.711 39.6908H166.422C166.314 39.6908 166.26 39.5823 166.26 39.528Z" fill="#BBBBBB"/>
<path d="M219.024 48.5392H221.684C221.738 48.5392 221.792 48.4849 221.792 48.3763L216.255 27.9654C216.255 27.9111 216.201 27.9111 216.147 27.9111H215.115H213.324H212.293C212.238 27.9111 212.184 27.9654 212.184 27.9654L206.647 48.3763C206.647 48.4306 206.701 48.5392 206.756 48.5392H209.415C209.47 48.5392 209.524 48.4849 209.524 48.4849L211.153 42.5136C211.153 42.4593 211.207 42.4593 211.261 42.4593H217.178C217.232 42.4593 217.287 42.5136 217.287 42.5136L218.915 48.4849C218.915 48.4849 218.969 48.5392 219.024 48.5392ZM211.967 39.528L214.138 31.5482C214.192 31.4396 214.301 31.4396 214.355 31.5482L216.527 39.528C216.527 39.5823 216.472 39.6908 216.418 39.6908H212.13C212.021 39.6908 211.967 39.5823 211.967 39.528Z" fill="#BBBBBB"/>
<path d="M124.895 45.4991V39.2022C124.895 39.1479 124.949 39.0936 125.003 39.0936H132.875C132.929 39.0936 132.983 39.0393 132.983 38.985V36.4337C132.983 36.3794 132.929 36.3251 132.875 36.3251H125.003C124.949 36.3251 124.895 36.2708 124.895 36.2165V30.8424C124.895 30.7881 124.949 30.7338 125.003 30.7338H133.906C133.96 30.7338 134.015 30.6795 134.015 30.6253V28.0739C134.015 28.0196 133.96 27.9653 133.906 27.9653H124.895H121.855C121.801 27.9653 121.746 28.0196 121.746 28.0739V30.7338V36.3794V39.1479V45.662V48.4305C121.746 48.4848 121.801 48.5391 121.855 48.5391H124.895H134.286C134.34 48.5391 134.395 48.4848 134.395 48.4305V45.7706C134.395 45.7163 134.34 45.662 134.286 45.662H124.949C124.949 45.6077 124.895 45.5534 124.895 45.4991Z" fill="#BBBBBB"/>
<path d="M265.98 48.322L255.774 37.7909C255.72 37.7366 255.72 37.6823 255.774 37.628L264.948 28.074C265.003 28.0197 264.948 27.9111 264.894 27.9111H261.148C261.094 27.9111 261.094 27.9111 261.094 27.9654L253.277 36.1081C253.223 36.1623 253.114 36.1081 253.114 36.0538V28.1283C253.114 28.074 253.06 28.0197 253.006 28.0197H250.02C249.966 28.0197 249.912 28.074 249.912 28.1283V48.4849C249.912 48.5392 249.966 48.5935 250.02 48.5935H252.952C253.006 48.5935 253.06 48.5392 253.06 48.4849V39.528C253.06 39.4194 253.169 39.3651 253.223 39.4737L262.017 48.5935L262.071 48.6477H265.817C265.98 48.5392 266.034 48.3763 265.98 48.322Z" fill="#BBBBBB"/>
<path d="M78.3731 17L60.5679 30.2454L63.8792 22.4284L78.3731 17Z" fill="#E17726" stroke="#E17726" stroke-linecap="round" stroke-linejoin="round"/>
<path d="M37.2256 17L54.9223 30.3539L51.7738 22.4284L37.2256 17Z" fill="#E27625" stroke="#E27625" stroke-linecap="round" stroke-linejoin="round"/>
<path d="M71.9677 47.6704L67.1907 54.9445L77.3961 57.7673L80.2732 47.8333L71.9677 47.6704Z" fill="#E27625" stroke="#E27625" stroke-linecap="round" stroke-linejoin="round"/>
<path d="M35.3801 47.8333L38.2572 57.7673L48.4084 54.9445L43.6856 47.6704L35.3801 47.8333Z" fill="#E27625" stroke="#E27625" stroke-linecap="round" stroke-linejoin="round"/>
<path d="M47.8655 35.4022L45.0427 39.6906L55.0853 40.1249L54.7596 29.2681L47.8655 35.4022Z" fill="#E27625" stroke="#E27625" stroke-linecap="round" stroke-linejoin="round"/>
<path d="M67.7877 35.4024L60.785 29.1597L60.5679 40.1251L70.6105 39.6908L67.7877 35.4024Z" fill="#E27625" stroke="#E27625" stroke-linecap="round" stroke-linejoin="round"/>
<path d="M48.4082 54.9447L54.488 52.0133L49.2225 47.8877L48.4082 54.9447Z" fill="#E27625" stroke="#E27625" stroke-linecap="round" stroke-linejoin="round"/>
<path d="M61.165 52.0133L67.1906 54.9447L66.3763 47.8877L61.165 52.0133Z" fill="#E27625" stroke="#E27625" stroke-linecap="round" stroke-linejoin="round"/>
<path d="M67.1906 54.9445L61.165 52.0132L61.6536 55.9217L61.5993 57.6045L67.1906 54.9445Z" fill="#D5BFB2" stroke="#D5BFB2" stroke-linecap="round" stroke-linejoin="round"/>
<path d="M48.4082 54.9445L54.0538 57.6045L53.9995 55.9217L54.488 52.0132L48.4082 54.9445Z" fill="#D5BFB2" stroke="#D5BFB2" stroke-linecap="round" stroke-linejoin="round"/>
<path d="M54.1622 45.2822L49.1138 43.8165L52.6422 42.188L54.1622 45.2822Z" fill="#233447" stroke="#233447" stroke-linecap="round" stroke-linejoin="round"/>
<path d="M61.4907 45.2822L62.9564 42.188L66.5392 43.8165L61.4907 45.2822Z" fill="#233447" stroke="#233447" stroke-linecap="round" stroke-linejoin="round"/>
<path d="M48.4083 54.9445L49.2768 47.6704L43.6855 47.8333L48.4083 54.9445Z" fill="#CC6228" stroke="#CC6228" stroke-linecap="round" stroke-linejoin="round"/>
<path d="M66.3765 47.6704L67.1907 54.9445L71.9677 47.8333L66.3765 47.6704Z" fill="#CC6228" stroke="#CC6228" stroke-linecap="round" stroke-linejoin="round"/>
<path d="M70.6105 39.6904L60.5679 40.1247L61.4907 45.2817L62.9564 42.1875L66.5391 43.816L70.6105 39.6904Z" fill="#CC6228" stroke="#CC6228" stroke-linecap="round" stroke-linejoin="round"/>
<path d="M49.114 43.816L52.6425 42.1875L54.1625 45.2817L55.0853 40.1247L45.0427 39.6904L49.114 43.816Z" fill="#CC6228" stroke="#CC6228" stroke-linecap="round" stroke-linejoin="round"/>
<path d="M45.0427 39.6904L49.2226 47.8874L49.114 43.816L45.0427 39.6904Z" fill="#E27525" stroke="#E27525" stroke-linecap="round" stroke-linejoin="round"/>
<path d="M66.5393 43.816L66.3765 47.8874L70.6106 39.6904L66.5393 43.816Z" fill="#E27525" stroke="#E27525" stroke-linecap="round" stroke-linejoin="round"/>
<path d="M55.0852 40.125L54.1624 45.282L55.3023 51.4161L55.5737 43.3278L55.0852 40.125Z" fill="#E27525" stroke="#E27525" stroke-linecap="round" stroke-linejoin="round"/>
<path d="M60.5679 40.125L60.0793 43.3278L60.2965 51.4161L61.4907 45.282L60.5679 40.125Z" fill="#E27525" stroke="#E27525" stroke-linecap="round" stroke-linejoin="round"/>
<path d="M61.4909 45.2821L60.2966 51.4162L61.1652 52.0133L66.3765 47.8877L66.5393 43.8164L61.4909 45.2821Z" fill="#F5841F" stroke="#F5841F" stroke-linecap="round" stroke-linejoin="round"/>
<path d="M49.1138 43.8164L49.2223 47.8877L54.4879 52.0133L55.3022 51.4162L54.1622 45.2821L49.1138 43.8164Z" fill="#F5841F" stroke="#F5841F" stroke-linecap="round" stroke-linejoin="round"/>
<path d="M61.5993 57.6043L61.6536 55.9215L61.165 55.5415H54.4338L53.9995 55.9215L54.0538 57.6043L48.4082 54.9443L50.3624 56.5729L54.3795 59.3414H61.2193L65.2363 56.5729L67.1906 54.9443L61.5993 57.6043Z" fill="#C0AC9D" stroke="#C0AC9D" stroke-linecap="round" stroke-linejoin="round"/>
<path d="M61.165 52.0131L60.2965 51.416H55.3023L54.4881 52.0131L53.9995 55.9216L54.4338 55.5416H61.165L61.6536 55.9216L61.165 52.0131Z" fill="#161616" stroke="#161616" stroke-linecap="round" stroke-linejoin="round"/>
<path d="M79.1331 31.1139L80.6531 23.7855L78.3732 17L61.165 29.8111L67.7877 35.4024L77.1246 38.1166L79.1874 35.7281L78.3189 35.0767L79.7303 33.7738L78.6446 32.9053L80.056 31.8196L79.1331 31.1139Z" fill="#763E1A" stroke="#763E1A" stroke-linecap="round" stroke-linejoin="round"/>
<path d="M35 23.7855L36.52 31.1139L35.5428 31.8196L36.9542 32.9053L35.8685 33.7738L37.3342 35.0767L36.4114 35.7281L38.4742 38.1166L47.8654 35.4024L54.4881 29.8111L37.2257 17L35 23.7855Z" fill="#763E1A" stroke="#763E1A" stroke-linecap="round" stroke-linejoin="round"/>
<path d="M77.1248 38.1166L67.7879 35.4023L70.6106 39.6908L66.3765 47.8877L71.9677 47.8334H80.2732L77.1248 38.1166Z" fill="#F5841F" stroke="#F5841F" stroke-linecap="round" stroke-linejoin="round"/>
<path d="M47.8655 35.4023L38.4743 38.1166L35.3801 47.8334H43.6856L49.2226 47.8877L45.0427 39.6908L47.8655 35.4023Z" fill="#F5841F" stroke="#F5841F" stroke-linecap="round" stroke-linejoin="round"/>
<path d="M60.5677 40.1249L61.1649 29.8109L63.8791 22.4282H51.7737L54.4879 29.8109L55.085 40.1249L55.3022 43.382V51.416H60.2963V43.382L60.5677 40.1249Z" fill="#F5841F" stroke="#F5841F" stroke-linecap="round" stroke-linejoin="round"/>
</svg>
