<svg width="299" height="75" viewBox="0 0 299 75" fill="none" xmlns="http://www.w3.org/2000/svg">
<rect width="299" height="75" fill="black"/>
<path d="M114.852 53.1167H106.789V30.5601H114.902C117.177 30.5601 119.156 31.0053 120.788 31.8956C122.42 32.786 123.707 34.0722 124.597 35.754C125.487 37.4359 125.933 39.4145 125.933 41.7889C125.933 44.1633 125.487 46.142 124.597 47.8238C123.707 49.5057 122.42 50.7918 120.739 51.7317C119.106 52.6715 117.128 53.1167 114.852 53.1167ZM111.587 49.011H114.654C116.781 49.011 118.414 48.4669 119.502 47.2797C120.59 46.142 121.134 44.3117 121.134 41.7889C121.134 39.3156 120.59 37.4854 119.502 36.3476C118.414 35.2099 116.781 34.6658 114.654 34.6658H111.587V49.011Z" fill="white"/>
<path d="M129.544 53.1171H124.399L132.265 30.6099H138.497L146.313 53.1171H141.169L139.487 47.9726H131.275L129.544 53.1171ZM132.462 44.2626H138.25L135.48 35.7544H135.282L132.462 44.2626Z" fill="white"/>
<path d="M166.001 41.8388C166.001 44.3121 165.506 46.3897 164.566 48.121C163.626 49.8524 162.34 51.1385 160.757 52.0783C159.125 52.9687 157.344 53.4634 155.316 53.4634C153.288 53.4634 151.457 53.0182 149.875 52.0783C148.242 51.1385 147.005 49.8524 146.066 48.121C145.126 46.3897 144.631 44.3121 144.631 41.8883C144.631 39.415 145.126 37.3374 146.066 35.606C147.005 33.8747 148.242 32.5886 149.875 31.6487C151.507 30.7583 153.288 30.2637 155.316 30.2637C157.344 30.2637 159.125 30.7089 160.757 31.6487C162.39 32.5391 163.626 33.8747 164.566 35.606C165.555 37.2879 166.001 39.415 166.001 41.8388ZM161.153 41.8388C161.153 39.4644 160.609 37.6342 159.57 36.3975C158.531 35.1608 157.097 34.5178 155.365 34.5178C153.634 34.5178 152.199 35.1608 151.161 36.3975C150.122 37.6836 149.578 39.4644 149.578 41.8388C149.578 44.2132 150.122 46.0435 151.161 47.2801C152.199 48.5168 153.634 49.1598 155.365 49.1598C157.097 49.1598 158.531 48.5168 159.57 47.2801C160.609 46.0435 161.153 44.2132 161.153 41.8388Z" fill="white"/>
<path d="M172.481 30.5601H178.417L184.699 45.6968H184.946L191.229 30.5601H197.115V53.1167H192.416V38.4252H192.218L186.331 52.9683H183.166L177.279 38.3757H177.081V53.1167H172.382V30.5601H172.481Z" fill="white"/>
<path d="M204.139 53.4143C202.507 53.4143 201.171 53.0185 200.083 52.1281C198.995 51.2872 198.45 50.0011 198.45 48.3687C198.45 47.132 198.747 46.0932 199.341 45.4007C199.934 44.7082 200.726 44.1641 201.715 43.8178C202.655 43.4715 203.743 43.2737 204.881 43.1747C206.365 43.0263 207.453 42.8779 208.047 42.6801C208.69 42.4822 208.987 42.1854 208.987 41.5918V41.5423C208.987 40.8498 208.789 40.3057 208.344 39.9594C207.899 39.5637 207.305 39.4153 206.464 39.4153C205.623 39.4153 204.931 39.6132 204.436 39.9594C203.941 40.3057 203.595 40.8003 203.447 41.3445L199.044 40.9982C199.39 39.4647 200.182 38.2281 201.468 37.3377C202.754 36.4473 204.436 35.9526 206.464 35.9526C207.701 35.9526 208.937 36.1505 210.026 36.5462C211.114 36.942 212.004 37.5356 212.697 38.3765C213.389 39.2174 213.736 40.3057 213.736 41.6413V53.068H209.234V50.7431H209.135C208.739 51.5346 208.096 52.1776 207.255 52.6723C206.464 53.1669 205.376 53.4143 204.139 53.4143ZM205.475 50.199C206.513 50.199 207.354 49.9022 208.047 49.3086C208.69 48.715 209.036 47.973 209.036 47.0826V45.3018C208.838 45.4007 208.542 45.5491 208.146 45.6481C207.75 45.747 207.354 45.8459 206.909 45.8954C206.464 45.9448 206.068 45.9943 205.722 46.0932C204.881 46.1922 204.238 46.4395 203.694 46.7858C203.199 47.132 202.952 47.6267 202.952 48.3192C202.952 48.9623 203.199 49.457 203.694 49.7538C204.139 50.0011 204.782 50.199 205.475 50.199Z" fill="white"/>
<path d="M215.566 53.1167V30.5601H220.314V42.5804H220.562L226.003 36.1498H231.444L225.113 43.4708L231.791 53.0673H226.25L221.551 46.2904L220.265 47.7249V53.1167H215.566Z" fill="white"/>
<path d="M238.617 53.4641C236.886 53.4641 235.352 53.1178 234.066 52.3758C232.83 51.6833 231.791 50.6445 231.148 49.3584C230.455 48.0722 230.109 46.4893 230.109 44.7085C230.109 42.9772 230.455 41.4437 231.148 40.1576C231.84 38.8715 232.78 37.8327 234.017 37.0907C235.253 36.3487 236.737 36.0024 238.419 36.0024C239.903 36.0024 241.288 36.3487 242.475 36.9423C243.663 37.5854 244.652 38.5252 245.345 39.8114C246.087 41.0975 246.433 42.6804 246.433 44.6096V45.8957H234.808C234.808 47.1324 235.154 48.1712 235.847 48.8637C236.54 49.5562 237.479 49.952 238.667 49.952C239.458 49.952 240.151 49.7541 240.695 49.4573C241.288 49.111 241.684 48.6164 241.931 48.0228L246.334 48.3196C245.988 49.9025 245.147 51.1392 243.811 52.079C242.525 52.9694 240.794 53.4641 238.617 53.4641ZM234.858 42.9772H242.03C242.03 41.9879 241.684 41.1469 241.041 40.5039C240.398 39.8608 239.557 39.5146 238.518 39.5146C237.479 39.5146 236.589 39.8608 235.946 40.5039C235.253 41.1964 234.907 41.9879 234.858 42.9772Z" fill="white"/>
<path d="M247.669 53.1175V36.2H252.27V39.1185H252.468C252.764 38.0797 253.309 37.2882 254.051 36.7441C254.793 36.2 255.634 35.9526 256.573 35.9526C257.118 35.9526 257.612 36.0021 258.057 36.1505V40.3057C257.86 40.2562 257.513 40.2068 257.118 40.1078C256.722 40.0584 256.375 40.0583 256.029 40.0583C254.99 40.0583 254.1 40.4046 253.457 41.0477C252.764 41.6907 252.418 42.5317 252.418 43.5705V53.1175H247.669Z" fill="white"/>
<path d="M27 63.9504L49.7545 21.8545L69.7884 13L47.0339 55.0959L27 63.9504Z" fill="url(#paint0_linear_489_139)"/>
<path d="M49.7051 54.3045L66.9688 22.2998L76.7632 31.9457L59.7468 64L49.7051 54.3045Z" fill="url(#paint1_linear_489_139)"/>
<path d="M78.6924 32.9351L91.4547 37.5849L85.0736 49.259L69.5906 49.8031L78.6924 32.9351Z" fill="url(#paint2_linear_489_139)"/>
<defs>
<linearGradient id="paint0_linear_489_139" x1="22.7824" y1="58.5418" x2="88.3713" y2="7.13624" gradientUnits="userSpaceOnUse">
<stop stop-color="#64C7F0"/>
<stop offset="1" stop-color="#4A9CD6"/>
</linearGradient>
<linearGradient id="paint1_linear_489_139" x1="30.5495" y1="67.9186" x2="98.8723" y2="16.3553" gradientUnits="userSpaceOnUse">
<stop stop-color="#64C7F0"/>
<stop offset="1" stop-color="#4A9CD6"/>
</linearGradient>
<linearGradient id="paint2_linear_489_139" x1="36.3215" y1="75.6621" x2="102.577" y2="25.359" gradientUnits="userSpaceOnUse">
<stop stop-color="#64C7F0"/>
<stop offset="1" stop-color="#4A9CD6"/>
</linearGradient>
</defs>
</svg>
