<svg width="299" height="75" viewBox="0 0 299 75" fill="none" xmlns="http://www.w3.org/2000/svg">
<rect width="299" height="75" fill="black"/>
<g clip-path="url(#clip0_489_138)">
<path d="M67.3544 34.9679L74.6684 27.5886L81.9863 34.9718L86.2421 30.6778L74.6684 19L63.0986 30.6739L67.3544 34.9679Z" fill="#F3BA2F"/>
<path d="M64.349 37.9995L60.0933 33.7056L55.8373 37.9997L60.0931 42.2936L64.349 37.9995Z" fill="#F3BA2F"/>
<path d="M67.3543 41.0319L74.6683 48.4113L81.9859 41.0283L86.244 45.3199L86.2419 45.3223L74.6683 56.9998L63.0982 45.3262L63.0923 45.3202L67.3543 41.0319Z" fill="#F3BA2F"/>
<path d="M89.2438 42.2956L93.4998 38.0015L89.244 33.7076L84.9881 38.0017L89.2438 42.2956Z" fill="#F3BA2F"/>
<path d="M78.9851 37.9979H78.9868L74.6683 33.6406L71.4768 36.8607H71.4765L71.1101 37.2308L70.3536 37.994L70.3477 38L70.3536 38.0063L74.6683 42.3598L78.9868 38.0024L78.9889 38L78.9851 37.9979Z" fill="#F3BA2F"/>
<path d="M100.135 28.2075H109.391C111.688 28.2075 113.425 28.8024 114.602 29.9921C115.514 30.9135 115.969 32.0555 115.969 33.4178V33.4754C115.969 34.0511 115.899 34.5598 115.757 35.001C115.615 35.4428 115.426 35.8405 115.189 36.1955C114.953 36.5509 114.679 36.8627 114.367 37.131C114.055 37.4 113.72 37.6305 113.361 37.8219C114.516 38.2637 115.425 38.8631 116.088 39.6212C116.75 40.3797 117.082 41.4304 117.082 42.7735V42.8308C117.082 43.7523 116.906 44.5581 116.555 45.2493C116.204 45.9399 115.7 46.5159 115.045 46.9766C114.39 47.4373 113.602 47.7824 112.681 48.0129C111.76 48.2431 110.739 48.3581 109.619 48.3581H100.135V28.2075ZM108.465 36.354C109.436 36.354 110.206 36.1865 110.776 35.8504C111.347 35.5145 111.632 34.9722 111.632 34.224V34.1663C111.632 33.4949 111.385 32.9817 110.89 32.6264C110.395 32.2713 109.682 32.0936 108.751 32.0936H104.414V36.354H108.465ZM109.635 44.4723C110.605 44.4723 111.365 44.2952 111.918 43.9398C112.469 43.5848 112.745 43.0328 112.745 42.2843V42.227C112.745 41.5553 112.488 41.0229 111.975 40.6291C111.461 40.2362 110.634 40.0393 109.492 40.0393H104.414V44.4726L109.635 44.4723Z" fill="#F3BA2F"/>
<path d="M122.594 28.2075H126.988V48.3587H122.594V28.2075Z" fill="#F3BA2F"/>
<path d="M133.644 28.2075H137.694L147.053 40.615V28.2075H151.39V48.3587H147.652L137.98 35.5484V48.3587H133.644V28.2075Z" fill="#F3BA2F"/>
<path d="M164.692 28.064H168.743L177.303 48.3589H172.709L170.883 43.8395H162.438L160.612 48.3589H156.132L164.692 28.064ZM169.314 39.924L166.66 33.3895L164.007 39.924H169.314Z" fill="#F3BA2F"/>
<path d="M182.046 28.2075H186.098L195.455 40.615V28.2075H199.792V48.3587H196.055L186.383 35.5484V48.3587H182.046V28.2075Z" fill="#F3BA2F"/>
<path d="M215.605 48.7041C214.14 48.7041 212.78 48.4351 211.525 47.8982C210.269 47.3613 209.185 46.6269 208.272 45.6958C207.359 44.7651 206.646 43.6664 206.133 42.3998C205.619 41.1329 205.362 39.7799 205.362 38.3405V38.2832C205.362 36.8438 205.619 35.4959 206.133 34.2386C206.646 32.9817 207.359 31.8781 208.272 30.9282C209.185 29.9782 210.279 29.2294 211.553 28.6826C212.827 28.1357 214.236 27.8623 215.776 27.8623C216.708 27.8623 217.559 27.9394 218.329 28.0925C219.099 28.2465 219.798 28.4572 220.426 28.7258C221.054 28.9947 221.634 29.3209 222.167 29.7045C222.699 30.0887 223.194 30.5107 223.65 30.9714L220.855 34.2242C220.074 33.5144 219.28 32.9573 218.472 32.5546C217.663 32.1518 216.755 31.9501 215.747 31.9501C214.91 31.9501 214.135 32.1134 213.422 32.4396C212.709 32.7659 212.095 33.2167 211.582 33.7923C211.069 34.368 210.669 35.0352 210.383 35.793C210.098 36.5514 209.956 37.3621 209.956 38.2256V38.2829C209.956 39.1464 210.098 39.9624 210.383 40.7296C210.669 41.4976 211.063 42.169 211.568 42.7446C212.071 43.3203 212.68 43.7765 213.393 44.1123C214.107 44.4485 214.891 44.616 215.747 44.616C216.889 44.616 217.853 44.405 218.643 43.9827C219.432 43.561 220.217 42.9851 220.997 42.2554L223.793 45.1055C223.279 45.6622 222.746 46.1613 222.195 46.6022C221.644 47.044 221.04 47.4228 220.383 47.7397C219.727 48.0561 219.009 48.2965 218.23 48.4592C217.449 48.6221 216.575 48.7041 215.605 48.7041Z" fill="#F3BA2F"/>
<path d="M228.964 28.2075H244V32.1516H233.301V36.2393H242.716V40.1831H233.301V44.4149H244.143V48.3587H228.964V28.2075Z" fill="#F3BA2F"/>
</g>
<defs>
<clipPath id="clip0_489_138">
<rect width="188" height="38" fill="white" transform="translate(56 19)"/>
</clipPath>
</defs>
</svg>
