<svg width="299" height="75" viewBox="0 0 299 75" fill="none" xmlns="http://www.w3.org/2000/svg">
<rect width="299" height="75" fill="black"/>
<g clip-path="url(#clip0_489_129)">
<path d="M105.625 50.2774H104.552V44.8166H102.7V43.939H107.477V44.8166H105.625V50.2774Z" fill="white"/>
<path d="M112.645 50.2773H111.572V47.3519C111.572 46.9618 111.475 46.6693 111.377 46.5718C111.182 46.3767 110.987 46.2792 110.695 46.2792C110.305 46.2792 109.915 46.3767 109.72 46.6693C109.525 46.9618 109.427 47.3519 109.427 47.9369V50.2773H108.452V43.5488H109.427V45.3041C109.427 45.5966 109.427 45.8892 109.33 46.1817H109.427C109.525 45.9867 109.72 45.7916 110.012 45.5966C110.305 45.4991 110.5 45.4016 110.89 45.4016C112.06 45.4016 112.645 45.9867 112.645 47.1568V50.2773Z" fill="white"/>
<path d="M116.058 50.3746C115.278 50.3746 114.693 50.1795 114.303 49.692C113.913 49.3019 113.718 48.6193 113.718 47.9367C113.718 47.1566 113.913 46.5715 114.303 46.084C114.693 45.5964 115.278 45.4014 115.96 45.4014C116.545 45.4014 117.13 45.5964 117.423 45.9865C117.813 46.3765 118.008 46.8641 118.008 47.5467V48.1318H114.79C114.79 48.6193 114.888 48.9119 115.18 49.2044C115.375 49.4969 115.765 49.5945 116.155 49.5945C116.448 49.5945 116.74 49.5945 116.935 49.4969C117.228 49.3994 117.423 49.3994 117.715 49.2044V49.9845C117.423 50.082 117.228 50.1795 116.935 50.2771C116.74 50.3746 116.448 50.3746 116.058 50.3746ZM115.96 46.1815C115.668 46.1815 115.375 46.279 115.18 46.474C114.985 46.669 114.888 46.9616 114.79 47.3516H116.935C116.935 46.9616 116.838 46.669 116.643 46.474C116.448 46.279 116.253 46.1815 115.96 46.1815Z" fill="white"/>
<path d="M124.248 44.7191C123.663 44.7191 123.175 44.9142 122.883 45.3042C122.59 45.6943 122.395 46.2794 122.395 47.0595C122.395 47.8396 122.59 48.4247 122.883 48.8147C123.175 49.2048 123.663 49.3998 124.345 49.3998C124.638 49.3998 124.833 49.3998 125.125 49.3023C125.418 49.2048 125.613 49.2048 125.905 49.1073V49.9849C125.418 50.1799 124.833 50.2774 124.248 50.2774C123.273 50.2774 122.59 49.9849 122.103 49.3998C121.615 48.8147 121.323 48.0346 121.323 46.962C121.323 46.2794 121.42 45.6943 121.713 45.2067C122.005 44.7191 122.298 44.3291 122.785 44.0365C123.273 43.744 123.76 43.6465 124.443 43.6465C125.125 43.6465 125.71 43.744 126.198 44.0365L125.808 44.9142C125.613 44.8167 125.32 44.7191 125.125 44.6216C124.735 44.7191 124.54 44.7191 124.248 44.7191Z" fill="white"/>
<path d="M129.317 45.4014C129.512 45.4014 129.707 45.4014 129.805 45.4014L129.707 46.3765C129.61 46.3765 129.415 46.279 129.22 46.279C128.83 46.279 128.44 46.3765 128.245 46.669C127.952 46.9616 127.855 47.2541 127.855 47.7417V50.2771H126.88V45.4989H127.66L127.757 46.3765H127.855C128.05 46.084 128.245 45.8889 128.44 45.6939C128.732 45.4989 129.025 45.4014 129.317 45.4014Z" fill="white"/>
<path d="M130.39 45.499H131.462L132.437 48.2294C132.632 48.6195 132.73 49.0095 132.73 49.3021C132.73 49.107 132.827 48.912 132.827 48.717C132.925 48.522 133.217 47.4493 133.9 45.499H134.972L132.925 50.9598C132.535 51.9349 131.95 52.4225 131.072 52.4225C130.877 52.4225 130.585 52.4225 130.39 52.325V51.5449C130.585 51.5449 130.682 51.6424 130.877 51.6424C131.365 51.6424 131.755 51.3498 131.95 50.7648L132.145 50.2772L130.39 45.499Z" fill="white"/>
<path d="M138.385 50.3747C137.8 50.3747 137.313 50.1797 136.923 49.6921H136.825C136.825 50.0822 136.923 50.3747 136.923 50.4722V52.4225H135.948V45.499H136.728C136.728 45.5965 136.825 45.7916 136.825 46.1816H136.923C137.215 45.694 137.703 45.499 138.385 45.499C138.97 45.499 139.458 45.694 139.75 46.1816C140.043 46.5717 140.238 47.2543 140.238 48.0344C140.238 48.8145 140.043 49.3996 139.75 49.8871C139.458 50.1797 138.97 50.3747 138.385 50.3747ZM138.093 46.1816C137.703 46.1816 137.41 46.2791 137.215 46.5717C137.02 46.7667 136.923 47.1568 136.923 47.7418V47.9369C136.923 48.522 137.02 48.912 137.215 49.2045C137.41 49.4971 137.703 49.5946 138.093 49.5946C138.483 49.5946 138.678 49.4971 138.873 49.2045C139.068 48.912 139.165 48.522 139.165 47.9369C139.165 47.3518 139.068 46.9617 138.873 46.6692C138.775 46.3766 138.483 46.1816 138.093 46.1816Z" fill="white"/>
<path d="M143.26 49.497C143.552 49.497 143.747 49.497 144.04 49.3995V50.1796C143.942 50.2771 143.747 50.2771 143.65 50.2771C143.455 50.2771 143.26 50.3746 143.065 50.3746C142.09 50.3746 141.602 49.887 141.602 48.8144V46.279H140.92V45.7915L141.602 45.4014L141.992 44.4263H142.577V45.4989H143.942V46.279H142.577V48.8144C142.577 49.1069 142.675 49.2044 142.772 49.3995C142.87 49.497 142.967 49.497 143.26 49.497Z" fill="white"/>
<path d="M149.11 47.8396C149.11 48.6197 148.915 49.2048 148.525 49.6923C148.135 50.1799 147.55 50.3749 146.868 50.3749C146.38 50.3749 145.99 50.2774 145.697 50.0824C145.405 49.8873 145.113 49.5948 144.918 49.2048C144.723 48.8147 144.625 48.4246 144.625 47.8396C144.625 47.0594 144.82 46.4744 145.21 45.9868C145.6 45.5967 146.185 45.3042 146.868 45.3042C147.55 45.3042 148.135 45.4992 148.525 45.9868C148.915 46.4744 149.11 47.0594 149.11 47.8396ZM145.6 47.8396C145.6 48.9122 145.99 49.4973 146.868 49.4973C147.648 49.4973 148.038 48.9122 148.038 47.8396C148.038 46.7669 147.647 46.1818 146.77 46.1818C146.38 46.1818 145.99 46.2793 145.795 46.5719C145.697 46.9619 145.6 47.352 145.6 47.8396Z" fill="white"/>
<path d="M153.692 47.742V50.2774H152.62V43.939H154.375C155.155 43.939 155.837 44.134 156.227 44.4265C156.617 44.7191 156.812 45.2066 156.812 45.7917C156.812 46.5718 156.422 47.1569 155.545 47.4495L157.3 50.2774H156.13L154.57 47.742H153.692ZM153.692 46.8644H154.375C154.862 46.8644 155.252 46.7669 155.447 46.5718C155.642 46.3768 155.74 46.0843 155.74 45.7917C155.74 45.4017 155.642 45.2066 155.35 45.0116C155.155 44.8166 154.765 44.8166 154.277 44.8166H153.595V46.8644H153.692Z" fill="white"/>
<path d="M160.322 50.3746C159.542 50.3746 158.957 50.1795 158.567 49.692C158.177 49.3019 157.982 48.6193 157.982 47.9367C157.982 47.1566 158.177 46.5715 158.567 46.084C158.957 45.5964 159.542 45.4014 160.225 45.4014C160.81 45.4014 161.395 45.5964 161.687 45.9865C162.077 46.3765 162.272 46.8641 162.272 47.5467V48.1318H159.055C159.055 48.6193 159.152 48.9119 159.445 49.2044C159.64 49.4969 160.03 49.5945 160.42 49.5945C160.712 49.5945 161.005 49.5945 161.2 49.4969C161.492 49.3994 161.687 49.3994 161.98 49.2044V49.9845C161.687 50.082 161.492 50.1795 161.2 50.2771C160.907 50.3746 160.615 50.3746 160.322 50.3746ZM160.127 46.1815C159.835 46.1815 159.542 46.279 159.347 46.474C159.152 46.669 159.055 46.9616 158.957 47.3516H161.102C161.102 46.9616 161.005 46.669 160.81 46.474C160.712 46.279 160.42 46.1815 160.127 46.1815Z" fill="white"/>
<path d="M166.562 48.9122C166.562 49.3998 166.367 49.6923 166.075 49.9849C165.685 50.2774 165.197 50.3749 164.612 50.3749C163.93 50.3749 163.442 50.2774 163.052 50.0824V49.2048C163.637 49.4973 164.125 49.5948 164.612 49.5948C165.197 49.5948 165.587 49.3998 165.587 49.0097C165.587 48.9122 165.587 48.8147 165.49 48.7172C165.392 48.6197 165.295 48.5222 165.1 48.4246C164.905 48.3271 164.71 48.2296 164.417 48.1321C163.832 47.9371 163.54 47.742 163.345 47.4495C163.15 47.2545 163.052 46.9619 163.052 46.5719C163.052 46.1818 163.247 45.8893 163.54 45.5967C163.832 45.4017 164.32 45.3042 164.905 45.3042C165.49 45.3042 165.977 45.4017 166.465 45.6943L166.172 46.4744C165.685 46.2793 165.197 46.1818 164.905 46.1818C164.32 46.1818 164.125 46.3769 164.125 46.6694C164.125 46.8644 164.222 46.9619 164.32 47.0594C164.417 47.157 164.807 47.352 165.197 47.4495C165.587 47.6445 165.88 47.742 166.075 47.8396C166.27 47.9371 166.367 48.1321 166.465 48.3271C166.465 48.5222 166.562 48.7172 166.562 48.9122Z" fill="white"/>
<path d="M169.78 50.3746C169 50.3746 168.415 50.1795 168.025 49.692C167.635 49.3019 167.44 48.6193 167.44 47.9367C167.44 47.1566 167.635 46.5715 168.025 46.084C168.415 45.5964 169 45.4014 169.682 45.4014C170.267 45.4014 170.852 45.5964 171.145 45.9865C171.535 46.3765 171.73 46.8641 171.73 47.5467V48.1318H168.512C168.512 48.6193 168.61 48.9119 168.902 49.2044C169.097 49.4969 169.487 49.5945 169.877 49.5945C170.17 49.5945 170.462 49.5945 170.657 49.4969C170.95 49.3994 171.145 49.3994 171.437 49.2044V49.9845C171.145 50.082 170.95 50.1795 170.657 50.2771C170.365 50.3746 170.072 50.3746 169.78 50.3746ZM169.585 46.1815C169.292 46.1815 169 46.279 168.805 46.474C168.61 46.669 168.512 46.9616 168.415 47.3516H170.56C170.56 46.9616 170.462 46.669 170.267 46.474C170.17 46.279 169.877 46.1815 169.585 46.1815Z" fill="white"/>
<path d="M175.728 50.2773L175.533 49.5947C175.338 49.8873 175.045 50.0823 174.85 50.1798C174.655 50.2773 174.363 50.3749 173.973 50.3749C173.485 50.3749 173.095 50.2773 172.9 49.9848C172.608 49.6923 172.51 49.3997 172.51 48.9122C172.51 48.4246 172.705 48.0345 173.095 47.8395C173.485 47.547 174.07 47.4494 174.753 47.4494H175.63V47.1569C175.63 46.8644 175.533 46.6693 175.435 46.4743C175.338 46.2793 175.045 46.2793 174.753 46.2793C174.46 46.2793 174.265 46.2793 174.07 46.3768C173.875 46.4743 173.583 46.5718 173.388 46.6693L173.095 45.9867C173.388 45.8892 173.68 45.7917 173.973 45.6942C174.265 45.5967 174.558 45.5967 174.85 45.5967C175.435 45.5967 175.923 45.6942 176.215 45.9867C176.508 46.2793 176.703 46.6693 176.703 47.2544V50.4724H175.728V50.2773ZM174.168 49.5947C174.558 49.5947 174.85 49.4972 175.045 49.3022C175.24 49.1072 175.338 48.8146 175.338 48.4246V48.0345H174.753C174.265 48.0345 173.875 48.132 173.68 48.2296C173.485 48.3271 173.388 48.6196 173.388 48.9122C173.388 49.1072 173.485 49.3022 173.583 49.3997C173.778 49.4972 173.973 49.5947 174.168 49.5947Z" fill="white"/>
<path d="M180.212 45.4014C180.407 45.4014 180.602 45.4014 180.7 45.4014L180.602 46.3765C180.505 46.3765 180.31 46.279 180.115 46.279C179.725 46.279 179.335 46.3765 179.14 46.669C178.847 46.9616 178.75 47.2541 178.75 47.7417V50.2771H177.775V45.4989H178.555L178.75 46.279H178.847C179.042 45.9864 179.237 45.7914 179.432 45.5964C179.725 45.4989 179.92 45.4014 180.212 45.4014Z" fill="white"/>
<path d="M183.527 50.3749C182.845 50.3749 182.26 50.1799 181.87 49.6923C181.48 49.3023 181.285 48.6197 181.285 47.8396C181.285 47.0594 181.48 46.3769 181.87 45.9868C182.26 45.5967 182.845 45.3042 183.625 45.3042C184.112 45.3042 184.6 45.4017 184.99 45.5967L184.697 46.3769C184.307 46.1818 183.917 46.0843 183.625 46.0843C182.747 46.0843 182.357 46.6694 182.357 47.742C182.357 48.3271 182.455 48.7172 182.65 48.9122C182.845 49.2048 183.137 49.3023 183.527 49.3023C184.015 49.3023 184.405 49.2048 184.795 49.0097V49.8873C184.6 49.9849 184.405 50.0824 184.21 50.0824C184.112 50.3749 183.82 50.3749 183.527 50.3749Z" fill="white"/>
<path d="M190.157 50.2773H189.085V47.3519C189.085 46.9618 188.987 46.6693 188.89 46.5718C188.792 46.4742 188.5 46.2792 188.207 46.2792C187.817 46.2792 187.427 46.3767 187.232 46.6693C187.037 46.9618 186.94 47.3519 186.94 47.9369V50.2773H185.965V43.5488H186.94V45.3041C186.94 45.5966 186.94 45.8892 186.842 46.1817H186.94C187.037 45.9867 187.232 45.7916 187.525 45.5966C187.817 45.4016 188.012 45.4016 188.402 45.4016C189.572 45.4016 190.157 45.9867 190.157 47.1568V50.2773Z" fill="white"/>
<path d="M198.153 45.8892C198.153 46.5718 197.958 47.0594 197.47 47.4495C197.08 47.8395 196.398 47.937 195.618 47.937H194.935V50.2774H193.863V43.939H195.715C196.495 43.939 197.08 44.134 197.47 44.4265C197.958 44.7191 198.153 45.2066 198.153 45.8892ZM195.033 47.0594H195.618C196.105 47.0594 196.495 46.9619 196.788 46.7669C197.08 46.5718 197.178 46.2793 197.178 45.8892C197.178 45.4992 197.08 45.2066 196.885 45.1091C196.69 44.9141 196.3 44.8166 195.813 44.8166H195.13V47.0594H195.033Z" fill="white"/>
<path d="M200.298 50.2773H199.323V43.5488H200.298V50.2773Z" fill="white"/>
<path d="M204.685 50.2773L204.49 49.5947C204.295 49.8873 204.003 50.0823 203.808 50.1798C203.613 50.2773 203.32 50.3749 202.93 50.3749C202.443 50.3749 202.053 50.2773 201.858 49.9848C201.565 49.6923 201.468 49.3997 201.468 48.9122C201.468 48.4246 201.663 48.0345 202.053 47.8395C202.443 47.6445 203.028 47.4494 203.71 47.4494H204.49V47.1569C204.49 46.8644 204.393 46.6693 204.295 46.4743C204.198 46.2793 203.905 46.2793 203.613 46.2793C203.32 46.2793 203.125 46.2793 202.93 46.3768C202.735 46.4743 202.443 46.5718 202.248 46.6693L201.955 45.9867C202.248 45.8892 202.54 45.7917 202.833 45.6942C203.125 45.5967 203.418 45.5967 203.71 45.5967C204.295 45.5967 204.783 45.6942 205.075 45.9867C205.368 46.2793 205.563 46.6693 205.563 47.2544V50.4724H204.685V50.2773ZM203.125 49.5947C203.515 49.5947 203.808 49.4972 204.003 49.3022C204.198 49.1072 204.295 48.8146 204.295 48.4246V48.0345H203.71C203.223 48.0345 202.833 48.132 202.638 48.2296C202.443 48.3271 202.345 48.6196 202.345 48.9122C202.345 49.1072 202.443 49.3022 202.54 49.3997C202.735 49.4972 202.93 49.5947 203.125 49.5947Z" fill="white"/>
<path d="M208.585 49.497C208.877 49.497 209.072 49.497 209.365 49.3995V50.1796C209.267 50.2771 209.072 50.2771 208.975 50.2771C208.78 50.2771 208.585 50.3746 208.39 50.3746C207.415 50.3746 206.927 49.887 206.927 48.8144V46.279H206.245V45.7915L206.927 45.4014L207.317 44.4263H207.902V45.4989H209.267V46.279H207.902V48.8144C207.902 49.1069 208 49.2044 208.097 49.3995C208.195 49.497 208.39 49.497 208.585 49.497Z" fill="white"/>
<path d="M212.875 46.2792H211.705V50.2773H210.633V46.2792H209.853V45.7916L210.633 45.4991V45.2066C210.633 44.6215 210.73 44.2314 211.023 43.9389C211.315 43.6463 211.705 43.5488 212.193 43.5488C212.583 43.5488 212.875 43.6463 213.265 43.7439L212.973 44.524C212.68 44.4265 212.485 44.4265 212.29 44.4265C212.095 44.4265 211.9 44.524 211.803 44.6215C211.705 44.719 211.608 45.0115 211.608 45.3041V45.5966H212.778V46.2792H212.875Z" fill="white"/>
<path d="M217.945 47.8396C217.945 48.6197 217.75 49.2048 217.36 49.6923C216.97 50.1799 216.385 50.3749 215.702 50.3749C215.215 50.3749 214.825 50.2774 214.532 50.0824C214.24 49.8873 213.947 49.5948 213.752 49.2048C213.557 48.8147 213.46 48.4246 213.46 47.8396C213.46 47.0594 213.655 46.4744 214.045 45.9868C214.435 45.5967 215.02 45.3042 215.702 45.3042C216.385 45.3042 216.97 45.4992 217.36 45.9868C217.75 46.4744 217.945 47.0594 217.945 47.8396ZM214.435 47.8396C214.435 48.9122 214.825 49.4973 215.702 49.4973C216.482 49.4973 216.872 48.9122 216.872 47.8396C216.872 46.7669 216.482 46.1818 215.605 46.1818C215.215 46.1818 214.825 46.2793 214.63 46.5719C214.532 46.9619 214.435 47.352 214.435 47.8396Z" fill="white"/>
<path d="M221.552 45.4014C221.747 45.4014 221.942 45.4014 222.04 45.4014L221.942 46.3765C221.845 46.3765 221.65 46.279 221.455 46.279C221.065 46.279 220.675 46.3765 220.48 46.669C220.187 46.9616 220.09 47.2541 220.09 47.7417V50.2771H219.115V45.4989H219.895L219.992 46.3765H220.09C220.285 46.084 220.48 45.8889 220.675 45.6939C220.967 45.4989 221.26 45.4014 221.552 45.4014Z" fill="white"/>
<path d="M226.915 50.2772H225.842V47.3518C225.842 46.9617 225.745 46.6692 225.647 46.5717C225.55 46.3766 225.257 46.2791 224.965 46.2791C224.575 46.2791 224.282 46.3766 224.087 46.6692C223.892 46.9617 223.795 47.3518 223.795 47.9369V50.3747H222.82V45.5965H223.6L223.697 46.1816H223.795C223.892 45.9866 224.087 45.7916 224.38 45.694C224.672 45.5965 224.867 45.499 225.257 45.499C226.037 45.499 226.525 45.7916 226.72 46.2791H226.817C226.915 46.0841 227.11 45.8891 227.402 45.694C227.695 45.5965 227.987 45.499 228.28 45.499C228.865 45.499 229.255 45.5965 229.547 45.8891C229.84 46.1816 229.937 46.5717 229.937 47.2543V50.3747H228.962V47.4493C228.962 47.0592 228.865 46.7667 228.767 46.6692C228.67 46.4742 228.377 46.3766 228.085 46.3766C227.695 46.3766 227.402 46.4742 227.207 46.7667C227.012 47.0592 226.915 47.3518 226.915 47.9369V50.2772Z" fill="white"/>
<path d="M68.2825 18C59.3125 18 52 25.3135 52 34.2848C52 43.2561 59.215 50.4721 68.185 50.5696L76.96 41.7934L79.495 44.3287L80.3725 45.2064C83.005 42.2809 84.565 38.4779 84.565 34.3823C84.565 25.3135 77.2525 18 68.2825 18Z" fill="#1BABA1"/>
<path d="M73.8401 26.7764C75.3026 27.9466 76.1801 29.5068 76.5701 31.5546H72.0851C71.8901 30.677 71.5001 29.9944 70.8176 29.4093C70.1351 28.9218 69.3551 28.6292 68.3801 28.6292C67.2101 28.6292 66.3326 29.0193 65.5526 29.8969C64.7726 30.7745 64.3826 31.9447 64.3826 33.6024C64.3826 35.2601 64.7726 36.4303 65.5526 37.3079C66.3326 38.1856 67.2101 38.5756 68.3801 38.5756C69.3551 38.5756 70.2326 38.2831 70.8176 37.7955C71.5001 37.3079 71.8901 36.6253 72.0851 35.6502H76.5701C76.1801 37.698 75.3026 39.2582 73.8401 40.4284C72.3776 41.5985 70.6226 42.1836 68.3801 42.1836C66.7226 42.1836 65.2601 41.7936 63.9926 41.111C62.7251 40.4284 61.7501 39.4532 61.0676 38.088C60.3851 36.8204 59.9951 35.2601 59.9951 33.5049C59.9951 31.7497 60.3851 30.1894 61.0676 28.9218C61.7501 27.6541 62.7251 26.5814 63.9926 25.8988C65.2601 25.2162 66.7226 24.8262 68.3801 24.8262C70.6226 25.0212 72.3776 25.6063 73.8401 26.7764Z" fill="white"/>
<path d="M92.2676 41.8911H84.5651V45.4991H89.7326L82.7126 52.5201L78.3251 48.132C77.5451 47.3519 76.3751 47.3519 75.5951 48.132L64.3826 59.4436L66.9176 61.979L76.9601 51.935L81.3476 56.3232C82.1276 57.1033 83.2976 57.1033 84.0776 56.3232L92.2676 48.132V53.2027H95.8751V45.4991V41.8911H92.2676Z" fill="#1BABA1"/>
<path d="M110.89 24.2407C109.525 24.2407 108.452 24.7283 107.672 25.8009C106.892 26.8736 106.502 28.3363 106.502 30.189C106.502 34.0896 107.965 36.0399 110.89 36.0399C112.157 36.0399 113.62 35.7473 115.277 35.1622V38.2827C113.815 38.8678 112.255 39.1603 110.5 39.1603C107.965 39.1603 106.015 38.3802 104.747 36.82C103.382 35.2598 102.7 33.1145 102.7 30.189C102.7 28.3363 102.992 26.7761 103.675 25.4109C104.357 24.0457 105.235 22.973 106.502 22.2904C107.77 21.6078 109.135 21.2178 110.792 21.2178C112.45 21.2178 114.205 21.6078 115.862 22.4855L114.692 25.5084C114.01 25.2158 113.425 24.9233 112.742 24.7283C112.157 24.3382 111.475 24.2407 110.89 24.2407Z" fill="white"/>
<path d="M129.415 32.1392C129.415 34.2845 128.83 36.0397 127.66 37.2099C126.49 38.38 124.93 39.0626 122.883 39.0626C121.615 39.0626 120.445 38.7701 119.47 38.185C118.495 37.5999 117.715 36.8198 117.228 35.7472C116.74 34.6745 116.448 33.5043 116.448 32.0416C116.448 29.8963 117.033 28.1411 118.105 26.9709C119.178 25.8008 120.835 25.1182 122.883 25.1182C124.15 25.1182 125.32 25.4107 126.295 25.9958C127.27 26.5809 128.05 27.361 128.538 28.4336C129.22 29.5063 129.415 30.6765 129.415 32.1392ZM120.25 32.1392C120.25 33.4068 120.445 34.4795 120.933 35.1621C121.323 35.8447 122.103 36.1372 123.078 36.1372C124.053 36.1372 124.735 35.8447 125.125 35.1621C125.515 34.4795 125.808 33.5044 125.808 32.1392C125.808 30.8715 125.613 29.7988 125.125 29.2137C124.638 28.6287 123.955 28.2386 122.98 28.2386C122.005 28.2386 121.323 28.5311 120.933 29.2137C120.445 29.7988 120.25 30.774 120.25 32.1392Z" fill="white"/>
<path d="M131.073 21.9979C131.073 20.8278 131.755 20.2427 133.023 20.2427C134.29 20.2427 134.973 20.8278 134.973 21.9979C134.973 22.583 134.778 22.9731 134.485 23.2656C134.193 23.6557 133.705 23.8507 133.023 23.8507C131.658 23.8507 131.073 23.2656 131.073 21.9979ZM134.778 38.7703H131.17V25.5084H134.778V38.7703Z" fill="white"/>
<path d="M149.597 38.7702H145.99V30.9691C145.99 29.994 145.795 29.3114 145.503 28.8238C145.21 28.3363 144.625 28.1412 143.845 28.1412C142.87 28.1412 142.09 28.4338 141.603 29.1164C141.115 29.799 140.92 30.8716 140.92 32.5294V38.7702H137.312V25.5084H140.043L140.53 27.1661H140.725C141.115 26.4835 141.7 25.9959 142.382 25.7034C143.065 25.4108 143.942 25.2158 144.82 25.2158C146.38 25.2158 147.55 25.6059 148.33 26.4835C149.11 27.3611 149.5 28.5313 149.5 30.0915V38.7702H149.597Z" fill="white"/>
<path d="M159.835 24.2407C158.47 24.2407 157.398 24.7283 156.618 25.8009C155.838 26.8736 155.448 28.3363 155.448 30.189C155.448 34.0896 156.91 36.0399 159.835 36.0399C161.103 36.0399 162.565 35.7473 164.223 35.1622V38.2827C162.76 38.8678 161.2 39.1603 159.445 39.1603C156.91 39.1603 154.96 38.3802 153.693 36.82C152.328 35.2598 151.645 33.1145 151.645 30.189C151.645 28.3363 151.938 26.7761 152.62 25.4109C153.303 24.0457 154.18 22.973 155.448 22.2904C156.715 21.6078 158.08 21.2178 159.738 21.2178C161.395 21.2178 163.15 21.6078 164.808 22.4855L163.638 25.5084C162.955 25.2158 162.37 24.9233 161.688 24.7283C161.103 24.3382 160.518 24.2407 159.835 24.2407Z" fill="white"/>
<path d="M178.75 38.7703H175.142V30.9692C175.142 29.0189 174.46 28.1413 172.997 28.1413C172.022 28.1413 171.242 28.5313 170.755 29.2139C170.267 29.8965 170.072 31.0667 170.072 32.5294V38.7703H166.465V20.2427H170.072V24.0457C170.072 24.3383 170.072 25.0209 169.975 26.0935L169.877 27.1662H170.072C170.852 25.8985 172.12 25.2159 173.875 25.2159C175.435 25.2159 176.605 25.6059 177.385 26.4836C178.165 27.3612 178.555 28.5313 178.555 30.0916V38.7703H178.75Z" fill="white"/>
<path d="M187.232 38.9653C185.087 38.9653 183.43 38.3802 182.26 37.21C181.09 36.0399 180.407 34.3821 180.407 32.2368C180.407 29.994 180.992 28.3363 182.065 27.0686C183.137 25.8984 184.697 25.2158 186.647 25.2158C188.5 25.2158 189.962 25.7034 191.035 26.776C192.107 27.8487 192.595 29.3114 192.595 31.1642V32.9194H184.015C184.015 33.9921 184.405 34.7722 184.892 35.3573C185.477 35.9423 186.257 36.2349 187.33 36.2349C188.11 36.2349 188.89 36.1374 189.572 35.9423C190.255 35.7473 191.035 35.5523 191.815 35.1622V37.9901C191.132 38.2827 190.547 38.5752 189.767 38.6727C189.182 38.9653 188.305 38.9653 187.232 38.9653ZM186.745 27.8487C185.965 27.8487 185.38 28.1412 184.892 28.5313C184.502 29.0189 184.21 29.7015 184.112 30.5791H189.182C189.182 29.7015 188.89 29.0189 188.5 28.5313C188.11 28.0437 187.525 27.8487 186.745 27.8487Z" fill="white"/>
<path d="M200.005 38.9653C195.91 38.9653 193.765 36.7224 193.765 32.1393C193.765 29.8965 194.35 28.1412 195.422 26.9711C196.592 25.8009 198.152 25.2158 200.297 25.2158C201.857 25.2158 203.222 25.5084 204.392 26.0934L203.32 28.9213C202.735 28.7263 202.247 28.5313 201.76 28.3363C201.272 28.2387 200.785 28.1412 200.297 28.1412C198.445 28.1412 197.47 29.5064 197.47 32.1393C197.47 34.7722 198.445 36.0399 200.297 36.0399C200.98 36.0399 201.662 35.9423 202.247 35.7473C202.832 35.5523 203.417 35.2597 204.002 34.8697V37.9901C203.417 38.3802 202.832 38.5752 202.247 38.7702C201.662 38.9653 200.98 38.9653 200.005 38.9653Z" fill="white"/>
<path d="M209.365 31.5543L210.925 29.5065L214.63 25.5084H218.725L213.46 31.2617L219.017 38.7703H214.825L211.022 33.407L209.462 34.6747V38.7703H205.855V20.2427H209.462V28.5313L209.365 31.5543Z" fill="white"/>
<path d="M229.353 38.7702L228.865 37.1124H228.67C228.28 37.6975 227.695 38.1851 227.013 38.5751C226.33 38.8677 225.453 39.0627 224.575 39.0627C223.015 39.0627 221.845 38.6727 221.065 37.795C220.285 36.9174 219.895 35.7472 219.895 34.187V25.5083H223.503V33.3094C223.503 34.2845 223.698 34.9671 223.99 35.4547C224.283 35.9423 224.868 36.1373 225.648 36.1373C226.623 36.1373 227.403 35.8448 227.89 35.1622C228.378 34.4796 228.573 33.4069 228.573 31.7492V25.5083H232.18V38.7702H229.353Z" fill="white"/>
<path d="M241.93 38.9654C240.37 38.9654 239.102 38.3803 238.225 37.3077H238.03C238.127 38.3803 238.225 39.0629 238.225 39.2579V44.6212H234.617V25.5085H237.542L238.03 27.2638H238.225C239.102 25.9961 240.37 25.3135 242.027 25.3135C243.587 25.3135 244.855 25.8986 245.732 27.1662C246.61 28.3364 247.097 30.0917 247.097 32.237C247.097 33.6997 246.902 34.8698 246.512 35.9425C246.122 37.0151 245.537 37.7952 244.757 38.3803C243.782 38.7704 242.905 38.9654 241.93 38.9654ZM240.857 28.1414C239.98 28.1414 239.297 28.4339 238.907 28.9215C238.517 29.5066 238.322 30.3842 238.225 31.6519V32.0419C238.225 33.5046 238.42 34.4798 238.907 35.0649C239.297 35.6499 239.98 36.04 240.955 36.04C242.612 36.04 243.392 34.6748 243.392 32.0419C243.392 30.7742 243.197 29.7991 242.807 29.1165C242.32 28.4339 241.637 28.1414 240.857 28.1414Z" fill="white"/>
</g>
<defs>
<clipPath id="clip0_489_129">
<rect width="195" height="43.9787" fill="white" transform="translate(52 18)"/>
</clipPath>
</defs>
</svg>
