<svg width="299" height="75" viewBox="0 0 299 75" fill="none" xmlns="http://www.w3.org/2000/svg">
<rect width="299" height="75" fill="black"/>
<path d="M178.048 26.0933V30.1086H180.788V33.6089H178.048V41.0189C178.048 41.6 178.168 42.0095 178.406 42.2605C178.644 42.5114 178.962 42.6435 179.359 42.6435C179.676 42.6435 179.928 42.6435 180.113 42.6171C180.298 42.6039 180.537 42.5511 180.828 42.4982L181.185 46.2362C180.629 46.3683 180.126 46.4608 179.676 46.5136C179.226 46.5664 178.697 46.5929 178.088 46.5929C176.421 46.5929 175.163 46.1438 174.302 45.2588C173.442 44.3738 173.019 42.9737 173.019 41.0453V33.6089H170.742V30.1086H173.019V26.0933H178.062H178.048Z" fill="#D9D9D9"/>
<path d="M182.046 38.0468C182.046 35.6164 182.734 33.6352 184.11 32.103C185.487 30.5708 187.406 29.8047 189.868 29.8047C192.329 29.8047 194.262 30.5708 195.652 32.103C197.028 33.6352 197.716 35.6164 197.716 38.0468V38.3638C197.716 40.8074 197.028 42.7886 195.652 44.3076C194.275 45.8266 192.356 46.5927 189.907 46.5927C187.459 46.5927 185.487 45.8266 184.11 44.3076C182.734 42.7886 182.046 40.8074 182.046 38.3638V38.0468ZM187.102 38.3638C187.102 39.7243 187.313 40.781 187.737 41.547C188.16 42.3131 188.888 42.7094 189.894 42.7094C190.9 42.7094 191.588 42.3263 192.025 41.547C192.449 40.7677 192.674 39.7111 192.674 38.3638V38.0468C192.674 36.7259 192.462 35.6825 192.025 34.89C191.602 34.0975 190.874 33.7012 189.868 33.7012C188.862 33.7012 188.16 34.0975 187.737 34.89C187.313 35.6825 187.102 36.7392 187.102 38.0468V38.3638Z" fill="#D9D9D9"/>
<path d="M204.599 30.1085L204.797 32.3803C205.327 31.5746 205.975 30.9406 206.756 30.4915C207.537 30.0424 208.397 29.8179 209.363 29.8179C210.952 29.8179 212.196 30.333 213.082 31.3501C213.969 32.3803 214.419 34.005 214.419 36.2504V46.2757H209.363V36.2372C209.363 35.3126 209.165 34.6522 208.781 34.2691C208.397 33.8861 207.828 33.688 207.087 33.688C206.624 33.688 206.2 33.7672 205.843 33.9389C205.472 34.1106 205.168 34.3484 204.903 34.639V46.2625H199.86V30.1085H204.599Z" fill="#D9D9D9"/>
<path d="M224.571 46.5928C222.188 46.5928 220.282 45.8399 218.866 44.3474C217.45 42.8548 216.735 40.9792 216.735 38.7338V38.1658C216.735 35.709 217.384 33.7013 218.668 32.1427C219.965 30.5841 221.804 29.8048 224.213 29.818C226.41 29.818 228.131 30.4785 229.375 31.7861C230.619 33.107 231.241 34.8769 231.241 37.1355V39.7772H221.99L221.963 39.8697C222.069 40.7018 222.413 41.3755 222.982 41.9038C223.552 42.4322 224.306 42.7095 225.259 42.7095C226.212 42.7095 226.979 42.6303 227.562 42.485C228.144 42.3397 228.859 42.0755 229.746 41.7057L230.937 44.7833C230.222 45.2984 229.309 45.7343 228.184 46.0777C227.059 46.4211 225.854 46.5928 224.571 46.5928ZM224.213 33.7013C223.485 33.7013 222.943 33.9655 222.572 34.4806C222.202 34.9958 221.99 35.6958 221.91 36.5544L221.95 36.6336H226.304V36.2506C226.304 35.4317 226.132 34.8109 225.802 34.375C225.457 33.9391 224.928 33.7145 224.213 33.7145V33.7013Z" fill="#D9D9D9"/>
<path d="M247.281 39.4869H247.374L249.121 30.1221H253.793L249.994 46.2893H245.719L243.085 37.717H242.993L240.346 46.2893H236.084L232.272 30.1221H236.944L238.731 39.5662H238.824L241.458 30.1221H244.647L247.308 39.4869H247.281Z" fill="#D9D9D9"/>
<path d="M264.052 41.732C264.052 41.3357 263.827 40.9791 263.377 40.6621C262.927 40.3451 262.093 40.0677 260.902 39.8167C259.009 39.4469 257.593 38.8789 256.64 38.0996C255.687 37.3203 255.197 36.2636 255.197 34.9164C255.197 33.4899 255.793 32.2879 256.997 31.2972C258.188 30.3066 259.816 29.8047 261.868 29.8047C264.025 29.8047 265.732 30.2802 267.016 31.2444C268.287 32.2086 268.896 33.4502 268.843 34.9692L268.816 35.0617H263.906C263.906 34.4277 263.747 33.9389 263.416 33.6087C263.085 33.2785 262.569 33.12 261.854 33.12C261.325 33.12 260.875 33.2653 260.518 33.5559C260.16 33.8465 259.975 34.2163 259.975 34.6654C259.975 35.1145 260.187 35.4579 260.597 35.7617C261.007 36.0655 261.841 36.3297 263.099 36.5674C265.071 36.9505 266.54 37.5317 267.493 38.311C268.446 39.0771 268.922 40.1734 268.922 41.5867C268.922 43 268.274 44.2416 266.99 45.1794C265.693 46.1172 263.985 46.5927 261.868 46.5927C259.75 46.5927 257.924 46.0379 256.64 44.9152C255.356 43.8057 254.747 42.5509 254.8 41.1772L254.827 41.0847H259.406C259.419 41.8508 259.657 42.4056 260.107 42.749C260.557 43.0924 261.179 43.2509 262 43.2509C262.675 43.2509 263.191 43.1189 263.535 42.8547C263.879 42.5905 264.065 42.2207 264.065 41.732H264.052Z" fill="#D9D9D9"/>
<mask id="mask0_489_137" style="mask-type:luminance" maskUnits="userSpaceOnUse" x="44" y="12" width="225" height="53">
<path d="M268.921 12H44V64.834H268.921V12Z" fill="white"/>
</mask>
<g mask="url(#mask0_489_137)">
<path d="M117.854 42.7099C118.529 42.7099 119.032 42.5249 119.362 42.1551C119.693 41.7853 119.852 41.2437 119.852 40.5305H124.471L124.498 40.6229C124.537 42.3796 123.929 43.8194 122.658 44.9289C121.401 46.0384 119.786 46.5932 117.827 46.5932C115.379 46.5932 113.473 45.8271 112.149 44.3081C110.812 42.7891 110.151 40.8078 110.151 38.3775V38.034C110.151 35.6169 110.812 33.6356 112.136 32.1166C113.459 30.5845 115.339 29.8184 117.774 29.8184C119.826 29.8184 121.467 30.3863 122.698 31.5355C123.929 32.6846 124.524 34.2432 124.484 36.2113L124.458 36.3037H119.839C119.839 35.5376 119.667 34.9168 119.336 34.4281C118.992 33.9394 118.489 33.7017 117.801 33.7017C116.848 33.7017 116.173 34.0979 115.789 34.8772C115.405 35.6697 115.207 36.7132 115.207 38.034V38.3775C115.207 39.7379 115.405 40.7946 115.789 41.5607C116.173 42.3268 116.861 42.7099 117.84 42.7099H117.854Z" fill="#D9D9D9"/>
<path d="M135.734 34.5602H133.894C133.312 34.547 132.835 34.6395 132.478 34.8376C132.107 35.0357 131.83 35.3131 131.657 35.6697V46.2762H126.602V30.1089H131.366L131.552 32.4865C131.896 31.6411 132.346 30.9807 132.902 30.5184C133.457 30.0561 134.119 29.8184 134.86 29.8184C135.099 29.8184 135.35 29.8316 135.588 29.8712C135.84 29.9108 136.052 29.9504 136.25 30.0033L135.76 34.5734L135.734 34.5602Z" fill="#D9D9D9"/>
<path d="M145.343 39.1567V39.2756H145.449L148.123 30.1221H153.51L147.064 48.6932C146.561 49.882 145.926 50.8726 145.132 51.6519C144.338 52.4312 143.093 52.8143 141.373 52.8143C140.936 52.8143 140.579 52.7879 140.301 52.735C140.023 52.6822 139.586 52.5765 138.977 52.4312L139.586 48.8385C139.732 48.8649 139.824 48.8914 139.904 48.9046C139.97 48.9178 140.063 48.931 140.168 48.931C140.963 48.931 141.545 48.8121 141.915 48.5743C142.286 48.3366 142.564 47.98 142.736 47.5177L143.146 46.461L137.548 30.1221H142.921L145.33 39.1567H145.343Z" fill="#D9D9D9"/>
<path d="M169.828 38.536C169.828 40.9663 169.285 42.9212 168.187 44.3873C167.088 45.8535 165.54 46.5932 163.541 46.5932C162.76 46.5932 162.072 46.4479 161.463 46.1441C160.855 45.8403 160.338 45.4176 159.888 44.8496V52.4974H154.833V30.1089H159.558L159.743 31.8921C160.206 31.2317 160.735 30.7165 161.358 30.3599C161.98 30.0033 162.694 29.8184 163.515 29.8184C165.527 29.8184 167.075 30.5845 168.174 32.1298C169.272 33.6752 169.828 35.7094 169.828 38.219V38.536ZM164.785 38.219C164.785 36.8585 164.587 35.7622 164.19 34.9301C163.793 34.0979 163.158 33.6885 162.271 33.6885C161.702 33.6885 161.225 33.7941 160.828 34.0055C160.431 34.2168 160.127 34.5206 159.888 34.9168V41.6664C160.127 42.0098 160.444 42.274 160.841 42.4457C161.238 42.6174 161.728 42.6966 162.297 42.6966C163.184 42.6966 163.819 42.3268 164.203 41.6003C164.587 40.8739 164.785 39.8436 164.785 38.536V38.219Z" fill="#D9D9D9"/>
<path d="M83.7013 38.4189L70.468 51.6255L83.7013 64.832L96.9346 51.6255L83.7013 38.4189Z" fill="#351774"/>
<path d="M83.7057 12H57.2351L70.4704 25.2085L83.7057 38.417L96.941 25.2085L83.7057 12Z" fill="#DA5991"/>
<path d="M70.4706 51.6255L57.2353 38.417L44 51.6255L57.2353 64.834H83.7059L70.4706 51.6255Z" fill="#591C7E"/>
<path d="M57.2353 12L44 25.2085V51.6255L57.2353 38.417L70.4706 25.2085L57.2353 12Z" fill="#A72E83"/>
</g>
</svg>
